<?xml version="1.0" standalone="no"?>
<!DOCTYPE svg PUBLIC "-//W3C//DTD SVG 20010904//EN"
 "http://www.w3.org/TR/2001/REC-SVG-20010904/DTD/svg10.dtd">
<svg version="1.0" xmlns="http://www.w3.org/2000/svg"
 width="700.000000pt" height="700.000000pt" viewBox="0 0 700.000000 700.000000"
 preserveAspectRatio="xMidYMid meet">
<metadata>
Created by potrace 1.14, written by Peter Selinger 2001-2017
</metadata>
<g transform="translate(0.000000,700.000000) scale(0.100000,-0.100000)"
fill="#000000" stroke="none">
<path d="M1686 6408 c-26 -5 -65 -20 -85 -33 -20 -14 -245 -233 -500 -487
-387 -386 -468 -472 -490 -518 l-26 -55 0 -1965 c0 -2149 -4 -2017 58 -2145
78 -162 227 -278 413 -321 40 -9 4797 -12 4857 -2 203 31 378 164 455 345 50
118 48 46 48 2133 l-1 1955 -26 55 c-22 46 -104 133 -496 524 -341 340 -484
476 -519 495 l-49 25 -1795 1 c-987 0 -1817 -3 -1844 -7z m3590 -720 l145
-145 -1916 0 c-1053 -1 -1915 2 -1915 6 0 3 64 69 143 146 l142 140 1628 -1
1628 -1 145 -145z m555 -741 c0 -7 2 -794 2 -1750 l2 -1737 -80 0 c-824 -3
-4579 1 -4583 4 -4 5 -7 3426 -3 3483 1 17 4661 17 4662 0z"/>
<path d="M2050 4080 c-14 -9 -10 -1158 3 -1162 10 -3 2859 -2 2894 1 8 1 11
149 11 576 0 525 -1 576 -16 583 -22 10 -549 8 -559 -2 -4 -4 -8 -134 -8 -289
l0 -282 -875 -3 -875 -2 0 290 c0 188 -3 290 -10 291 -38 4 -559 3 -565 -1z"/>
</g>
</svg>
